# xmcd
#
# Track frame offsets: 
#        150
#        17286
#        37633
#        54193
#        70035
#        89525
#        106100
#        124458
#        139148
#        153942
#        170702
#
# Disc length: 2476 seconds
#
# Revision: 0
# Processed by: cddbd v1.5.2PL0 Copyright (c) Steve Scherf et al.
# Submitted via: ExactAudioCopy v0.99pb5
#
DISCID=8109aa0b
DTITLE=Ernie Southern and The Deltaholics - Every Day Is A Fight
DYEAR=2009
DGENRE=Blues
TTITLE0=Every Day Is A Fight
TTITLE1=I Wanna Kill Somebody
TTITLE2=Goin' Insane
TTITLE3=Red Hot Delta Blues
TTITLE4=Someone With Brains
TTITLE5=Into The Wind
TTITLE6=Island Earth
TTITLE7=Anytime Valentine
TTITLE8=Franni's Agin
TTITLE9=Atheist Funeral
TTITLE10=Blame On The Moon
EXTD=
EXTT0=
EXTT1=
EXTT2=
EXTT3=
EXTT4=
EXTT5=
EXTT6=
EXTT7=
EXTT8=
EXTT9=
EXTT10=
PLAYORDER=
